<?xml version="1.0" ?><svg enable-background="new 0 0 24 24" id="Layer_1" version="1.1" viewBox="0 0 24 24" xml:space="preserve" xmlns="http://www.w3.org/2000/svg" xmlns:xlink="http://www.w3.org/1999/xlink"><g><path d="M6,21.5   c-3.5,0-3.5-4-3.5-9c0-3.7787857,0.4720404-6.6134906,0.7674887-8.0176411   c0.1310308-0.6227388,0.3974185-1.2022357,0.7792432-1.7113357l0.0051799-0.0069063   c0.6371088-0.8494785,1.5568843-1.4404558,2.5965009-1.656602C7.9957643,0.827388,9.998559,0.5,12,0.5   s4.0042362,0.327388,5.3515873,0.6075155c1.0396156,0.2161462,1.9593925,0.8071235,2.5965004,1.656602l0.0051804,0.0069063   c0.3818245,0.5091,0.6482124,1.0885968,0.7792435,1.7113357C21.0279598,5.8865094,21.5,8.7212143,21.5,12.5c0,7-0.5,11-3.5,11   c-3.5,0-4-2-9.5-2H6z" fill="none" stroke="#303C42" stroke-linecap="round" stroke-linejoin="round" stroke-miterlimit="10"/><ellipse cx="12" cy="7.5" fill="none" rx="6.5" ry="5" stroke="#303C42" stroke-linecap="round" stroke-linejoin="round" stroke-miterlimit="10"/><circle cx="14.5" cy="18.5" fill="none" r="1" stroke="#303C42" stroke-linecap="round" stroke-linejoin="round" stroke-miterlimit="10"/><circle cx="17.5" cy="15.5" fill="none" r="1" stroke="#303C42" stroke-linecap="round" stroke-linejoin="round" stroke-miterlimit="10"/><rect fill="none" height="4" id="XMLID_1318_" stroke="#303C42" stroke-linecap="round" stroke-linejoin="round" stroke-miterlimit="10" width="1" x="7" y="14.5"/><rect fill="none" height="4" id="XMLID_1317_" stroke="#303C42" stroke-linecap="round" stroke-linejoin="round" stroke-miterlimit="10" transform="matrix(3.456061e-11 1 -1 3.456061e-11 24 9)" width="1" x="7" y="14.5"/><circle cx="12" cy="15.5" fill="#303C42" r="0.5"/></g><g/><g/><g/><g/><g/><g/><g/><g/><g/><g/><g/><g/><g/><g/><g/></svg>